<?xml version="1.0" standalone="no"?>
<!DOCTYPE svg PUBLIC "-//W3C//DTD SVG 20010904//EN"
 "http://www.w3.org/TR/2001/REC-SVG-20010904/DTD/svg10.dtd">
<svg version="1.0" xmlns="http://www.w3.org/2000/svg"
 width="1490.000000pt" height="1490.000000pt" viewBox="0 0 1490.000000 1490.000000"
 preserveAspectRatio="xMidYMid meet">
<metadata>
Created by potrace 1.14, written by Peter Selinger 2001-2017
</metadata>
<g transform="translate(0.000000,1490.000000) scale(0.100000,-0.100000)"
fill="#000000" stroke="none">
<path d="M7635 9883 c-89 -23 -376 -285 -623 -571 -37 -42 -72 -81 -78 -87
-14 -12 -288 -343 -367 -442 -117 -149 -165 -210 -213 -273 -27 -36 -51 -67
-54 -70 -3 -3 -52 -68 -108 -145 -57 -77 -112 -151 -122 -165 -11 -14 -45 -61
-77 -105 -32 -44 -61 -84 -66 -90 -4 -5 -44 -59 -87 -120 -44 -60 -83 -114
-88 -120 -4 -5 -19 -26 -33 -45 -120 -163 -324 -436 -328 -440 -3 -3 -18 -21
-32 -40 -15 -19 -35 -45 -45 -56 -11 -12 -30 -36 -44 -54 -28 -38 -89 -106
-172 -194 l-57 -60 -123 41 c-319 106 -683 224 -778 253 -58 17 -113 35 -122
40 -10 6 -23 10 -30 10 -7 0 -42 9 -78 20 -248 74 -459 129 -599 156 -12 3
-51 11 -85 19 -71 16 -285 55 -336 60 -19 3 -44 6 -55 9 -11 3 -47 8 -79 12
-57 6 -91 11 -91 14 0 5 -247 13 -435 13 -216 1 -371 -6 -460 -19 -47 -7 -213
-46 -240 -56 -8 -4 -58 -21 -110 -39 -230 -78 -443 -190 -635 -332 -80 -59
-98 -76 -199 -173 -42 -41 -108 -118 -154 -179 -49 -66 -120 -202 -147 -280
-24 -72 -29 -127 -29 -340 0 -192 7 -290 23 -309 5 -6 10 -14 10 -19 1 -11 30
-80 40 -97 6 -8 19 -32 30 -52 80 -147 235 -290 409 -377 55 -28 243 -96 291
-106 9 -2 36 -8 61 -13 25 -6 68 -13 95 -17 28 -4 61 -9 75 -11 35 -5 132 -14
215 -19 79 -5 414 -6 490 -1 98 6 240 18 259 22 10 2 44 6 75 10 31 3 65 8 76
10 11 2 61 11 110 20 50 8 117 22 150 30 33 8 71 17 85 20 130 27 575 178 604
205 6 5 16 9 24 9 21 0 300 137 434 213 65 37 122 67 128 67 5 0 10 4 10 8 0
5 12 15 27 23 23 12 105 63 173 109 74 49 224 157 310 223 101 79 117 91 163
130 12 10 35 28 50 40 31 24 40 32 147 127 41 36 104 91 142 123 75 62 64 60
178 31 30 -8 66 -17 79 -20 13 -3 32 -9 43 -15 10 -5 18 -8 18 -5 0 3 16 -2
35 -10 19 -8 37 -14 40 -13 7 1 203 -61 545 -174 151 -50 277 -91 280 -92 3
-1 57 -18 120 -39 63 -21 122 -39 130 -41 8 -2 39 -12 68 -24 28 -11 52 -18
52 -15 0 4 7 1 15 -6 8 -7 15 -10 15 -6 0 3 17 -1 38 -8 20 -8 69 -24 107 -35
39 -11 108 -32 155 -45 69 -21 166 -45 235 -60 6 -1 24 -5 40 -9 41 -9 83 -16
130 -22 22 -3 56 -8 75 -10 78 -12 218 -17 480 -17 309 -1 350 5 480 67 41 19
82 40 90 45 8 6 26 16 40 22 85 41 180 120 180 149 0 9 -7 20 -16 23 -17 7
-92 -10 -109 -24 -19 -15 -168 -62 -220 -68 -105 -14 -381 -5 -470 15 -11 2
-37 6 -57 9 -33 4 -154 28 -203 39 -41 10 -102 23 -133 29 -12 3 -25 7 -30 9
-4 3 -23 8 -42 11 -35 6 -112 26 -250 66 -41 12 -84 23 -95 25 -11 2 -94 27
-185 55 -91 28 -172 53 -180 55 -8 2 -16 4 -17 5 -2 2 -6 3 -10 4 -45 12 -100
29 -108 34 -5 4 -15 7 -21 8 -16 2 -203 62 -229 73 -20 9 -431 144 -450 148
-18 4 -519 173 -522 176 -1 2 29 43 68 92 102 130 162 210 285 385 132 187
125 177 199 286 32 49 62 91 65 94 3 3 32 46 65 95 118 176 210 310 223 323 6
8 17 23 23 35 7 11 16 26 20 31 5 6 43 58 83 116 119 168 190 265 198 268 5 2
8 8 8 13 0 5 6 17 14 26 8 10 72 92 142 183 71 91 133 170 139 176 5 6 30 35
55 65 179 214 410 447 493 498 32 19 46 22 90 17 149 -18 157 -19 172 -6 25
21 62 180 71 312 6 72 4 92 -10 113 -9 14 -20 24 -24 24 -4 -1 -16 -4 -27 -6z
m-5385 -2687 c112 -8 131 -10 225 -21 33 -4 74 -9 90 -10 17 -2 59 -8 95 -14
36 -7 74 -14 85 -16 43 -7 185 -36 270 -55 50 -11 101 -23 115 -26 29 -6 163
-41 300 -77 108 -29 567 -164 590 -174 8 -3 23 -8 33 -10 10 -1 55 -15 100
-30 81 -26 87 -28 117 -36 8 -2 22 -6 30 -10 8 -3 114 -37 235 -77 306 -99
278 -82 218 -138 -27 -26 -71 -66 -99 -90 -27 -24 -58 -51 -69 -62 -20 -18
-65 -55 -154 -129 -24 -20 -49 -41 -55 -47 -17 -16 -176 -138 -194 -149 -10
-5 -19 -13 -22 -16 -3 -3 -45 -35 -95 -70 -292 -210 -611 -390 -880 -496 -103
-41 -130 -51 -143 -54 -4 -1 -44 -15 -89 -30 -46 -15 -83 -26 -83 -23 0 3 -8
0 -18 -5 -11 -6 -30 -12 -43 -15 -13 -3 -33 -7 -44 -10 -154 -36 -144 -34
-255 -52 -190 -31 -283 -37 -555 -37 -299 0 -424 11 -645 57 -14 3 -38 9 -55
12 -16 3 -34 9 -40 12 -5 4 -19 8 -29 9 -56 9 -336 129 -356 152 -3 4 -32 24
-65 46 -81 55 -213 188 -257 260 -58 96 -78 182 -73 328 2 67 6 133 9 147 4
14 8 35 10 48 18 92 116 322 137 322 5 0 9 5 9 11 0 18 93 130 146 176 27 23
65 56 84 72 19 17 38 31 42 31 4 0 13 6 21 14 25 25 173 103 274 144 119 48
254 88 358 106 17 3 54 10 82 15 29 6 88 13 130 17 43 4 79 7 80 8 5 4 345 -2
433 -8z"/>
<path d="M12535 9630 c-5 -8 -11 -23 -12 -33 -10 -64 -123 -313 -224 -492 -63
-113 -130 -250 -144 -295 -4 -14 -11 -29 -15 -35 -4 -5 -18 -49 -30 -98 -41
-166 -30 -293 37 -425 39 -77 52 -94 51 -65 -1 36 13 140 29 201 44 181 180
420 232 410 26 -5 66 -144 64 -218 -3 -103 -43 -258 -75 -298 -23 -28 -78
-127 -78 -142 0 -35 122 31 195 105 28 28 65 76 84 108 31 53 89 205 96 252
14 94 18 145 19 238 0 60 -2 111 -6 114 -5 2 -8 14 -8 27 0 38 -34 159 -109
386 -87 263 -94 279 -106 260z"/>
<path d="M13709 8065 c-2 -1 -18 -5 -35 -8 -104 -16 -274 -143 -389 -292 -16
-21 -35 -43 -40 -49 -17 -18 -125 -184 -132 -203 -3 -10 -11 -25 -18 -33 -6
-8 -31 -60 -54 -115 -23 -55 -57 -122 -75 -150 -76 -113 -315 -328 -446 -401
-19 -10 -37 -21 -40 -24 -13 -14 -149 -73 -199 -86 -81 -21 -165 -20 -221 3
-46 20 -93 90 -106 158 -2 11 -7 40 -12 65 -13 73 -3 211 25 334 14 65 88 231
146 331 87 149 152 282 163 333 6 31 -100 45 -193 25 -78 -16 -107 -41 -181
-152 -60 -92 -169 -314 -197 -401 -28 -87 -59 -146 -114 -213 -55 -67 -246
-257 -299 -297 -19 -14 -39 -30 -45 -35 -7 -6 -32 -25 -57 -41 -187 -126 -383
-129 -460 -8 -25 41 -34 69 -47 154 -5 35 -4 178 2 220 3 19 7 53 10 75 6 53
12 85 35 182 54 229 68 305 61 330 -9 36 -38 44 -91 26 -55 -19 -126 -89 -235
-233 -27 -36 -52 -67 -55 -70 -3 -3 -22 -27 -41 -55 -38 -54 -58 -81 -76 -100
-7 -8 -13 -16 -13 -19 0 -3 -103 -146 -139 -192 -4 -5 -21 -30 -37 -55 -16
-24 -31 -46 -34 -49 -3 -3 -31 -44 -63 -92 -32 -49 -60 -88 -61 -88 -2 0 -3
96 -3 213 -1 365 -12 445 -71 509 -35 38 -115 66 -182 63 -89 -3 -150 -29
-227 -97 -37 -33 -87 -73 -110 -89 l-42 -29 13 42 c7 24 18 59 24 78 92 280
111 369 85 395 -23 23 -57 18 -146 -24 -109 -51 -147 -92 -161 -174 -3 -17
-26 -89 -36 -112 -5 -11 -16 -45 -26 -75 -9 -30 -24 -71 -32 -90 -9 -19 -16
-37 -16 -40 -1 -3 -19 -41 -40 -85 -33 -65 -60 -99 -155 -195 -140 -141 -232
-220 -343 -293 -142 -95 -233 -134 -334 -143 -102 -10 -173 26 -216 110 -32
61 -31 208 3 341 5 22 12 51 15 65 2 14 19 68 36 120 18 52 33 100 34 105 1 6
21 55 44 110 23 55 46 111 52 125 6 14 14 33 19 42 19 37 49 124 49 140 0 28
-81 41 -155 26 -36 -8 -94 -57 -95 -80 0 -4 -13 -29 -29 -55 -15 -27 -57 -104
-93 -173 -197 -380 -426 -680 -613 -802 -140 -90 -234 -65 -251 68 -14 114 37
273 179 567 100 204 127 263 127 277 0 29 -147 23 -213 -9 -34 -17 -51 -36
-87 -98 -130 -222 -231 -527 -236 -710 -6 -197 51 -267 216 -265 108 1 208 43
329 138 83 64 83 65 277 255 78 77 144 139 146 139 3 0 4 -55 3 -122 -3 -171
25 -255 116 -347 64 -65 126 -89 229 -89 191 0 408 103 650 309 52 44 106 90
118 101 13 11 27 17 30 14 5 -6 -35 -112 -82 -216 -11 -25 -21 -47 -21 -50 0
-3 -7 -29 -14 -58 -16 -64 -8 -100 24 -112 41 -15 83 9 130 75 11 15 29 39 40
54 11 14 25 35 32 46 86 140 93 151 131 207 17 26 32 50 32 53 0 3 5 11 10 18
6 7 30 39 55 72 25 33 60 78 78 100 55 69 197 211 230 230 18 10 34 21 37 25
3 3 23 13 45 22 70 27 98 3 120 -104 13 -63 15 -375 2 -395 -4 -6 -3 -14 3
-18 6 -4 8 -10 5 -15 -5 -7 -7 -26 -21 -185 -6 -69 -7 -118 -5 -163 1 -16 11
-27 36 -38 85 -35 127 -1 302 250 50 72 97 136 102 143 6 7 11 15 11 18 0 22
267 352 276 342 2 -2 13 -132 19 -227 11 -162 65 -320 140 -408 20 -22 61 -53
93 -69 49 -24 68 -28 142 -27 186 2 395 115 706 381 86 74 148 123 155 123 4
0 10 -19 14 -42 19 -113 37 -188 47 -194 4 -3 8 -13 8 -24 0 -20 33 -82 65
-121 61 -75 174 -117 310 -114 78 1 190 20 210 34 6 4 33 16 60 26 63 23 186
88 248 131 26 19 51 34 56 34 5 0 11 3 13 8 2 4 44 41 93 82 50 41 97 81 105
90 8 8 27 23 43 33 33 21 35 19 41 -78 3 -38 12 -93 20 -121 40 -146 156 -273
271 -298 66 -14 82 -16 140 -17 118 -3 240 19 390 68 391 127 868 427 948 596
16 33 14 67 -3 67 -11 0 -86 -56 -128 -96 -42 -40 -204 -164 -242 -185 -14 -8
-27 -17 -30 -20 -28 -32 -378 -221 -450 -244 -76 -23 -125 -37 -170 -46 -75
-15 -275 -20 -308 -8 -37 14 -108 84 -140 138 -24 41 -26 53 -30 207 -3 153
-2 164 15 166 26 2 36 4 55 12 9 4 22 9 30 10 7 1 38 10 68 20 172 57 292 138
459 306 131 133 181 249 168 394 -11 128 -72 179 -218 183 -48 1 -88 0 -90 -2z
m170 -126 c51 -84 -43 -326 -179 -459 -54 -53 -196 -154 -270 -193 -19 -11
-44 -25 -55 -31 -11 -7 -31 -16 -45 -19 -14 -3 -29 -7 -34 -9 -23 -7 -10 37
38 133 46 91 179 315 196 329 3 3 17 21 30 40 86 123 223 240 283 240 9 0 26
-14 36 -31z"/>
</g>
</svg>
