<?xml version="1.0" encoding="UTF-8" standalone="no"?>
<!-- Created with Inkscape (http://www.inkscape.org/) -->

<svg
   version="1.1"
   id="svg2"
   width="544.59253"
   height="183.825"
   viewBox="0 0 544.59252 183.82499"
   sodipodi:docname="lumie_logo.svg"
   inkscape:version="1.3 (0e150ed, 2023-07-21)"
   xmlns:inkscape="http://www.inkscape.org/namespaces/inkscape"
   xmlns:sodipodi="http://sodipodi.sourceforge.net/DTD/sodipodi-0.dtd"
   xmlns="http://www.w3.org/2000/svg"
   xmlns:svg="http://www.w3.org/2000/svg">
  <defs
     id="defs6">
    <clipPath
       clipPathUnits="userSpaceOnUse"
       id="clipPath16">
      <path
         d="M 0,595.276 H 841.89 V 0 H 0 Z"
         id="path14" />
    </clipPath>
  </defs>
  <sodipodi:namedview
     id="namedview4"
     pagecolor="#ffffff"
     bordercolor="#000000"
     borderopacity="0.25"
     inkscape:showpageshadow="2"
     inkscape:pageopacity="0.0"
     inkscape:pagecheckerboard="0"
     inkscape:deskcolor="#d1d1d1"
     inkscape:zoom="0.29734106"
     inkscape:cx="472.52136"
     inkscape:cy="329.58785"
     inkscape:window-width="1280"
     inkscape:window-height="631"
     inkscape:window-x="8"
     inkscape:window-y="26"
     inkscape:window-maximized="0"
     inkscape:current-layer="g8" />
  <g
     id="g8"
     inkscape:groupmode="layer"
     inkscape:label="Lumie_logos"
     transform="matrix(1.3333333,0,0,-1.3333333,1.546552e-7,793.70133)">
    <g
       id="g10"
       transform="translate(-216.7224,228.70381)">
      <g
         id="g12"
         clip-path="url(#clipPath16)">
        <g
           id="g18"
           transform="translate(591.5498,305.3796)">
          <path
             d="m 0,0 c 3.454,4.574 6.162,6.863 8.124,6.863 1.12,0 1.68,-0.84 1.68,-2.521 0,-2.149 -0.887,-4.716 -2.661,-7.704 C 4.433,-8.125 -0.609,-11.675 -7.986,-14.008 -6.023,-9.339 -3.362,-4.671 0,0 m 30.956,-14.849 c -1.588,-1.776 -3.551,-3.526 -5.882,-5.253 -2.337,-1.729 -5.092,-3.48 -8.265,-5.252 -6.913,-3.831 -12.702,-5.744 -17.37,-5.744 -5.883,0 -8.825,3.174 -8.825,9.526 0,1.773 0.186,3.452 0.56,5.042 8.217,2.053 14.474,5.743 18.771,11.067 2.426,3.173 3.642,6.163 3.642,8.965 0,4.574 -2.336,6.863 -7.004,6.863 -3.551,0 -7.331,-1.915 -11.346,-5.743 -3.55,-3.362 -6.493,-7.564 -8.825,-12.606 -1.112,-2.268 -1.94,-4.377 -2.523,-6.349 -0.18,-0.155 -0.365,-0.319 -0.562,-0.516 -8.872,-9.526 -16.295,-14.287 -22.271,-14.287 -4.391,0 -6.583,3.081 -6.583,9.245 0,1.492 0.138,3.081 0.419,4.763 0.187,1.306 0.583,2.753 1.192,4.341 0.604,1.587 1.421,3.363 2.449,5.324 0.187,0.372 0.772,1.353 1.753,2.941 0.979,1.587 2.262,3.828 3.852,6.724 0.185,0.56 0.28,0.932 0.28,1.121 0,1.212 -1.12,1.82 -3.362,1.82 -2.991,0 -4.997,-0.794 -6.024,-2.381 -4.753,-6.955 -7.447,-13.11 -8.136,-18.487 -0.374,-0.133 -0.778,-0.374 -1.247,-0.844 -2.242,-2.335 -4.133,-4.25 -5.672,-5.743 -1.541,-1.494 -2.688,-2.569 -3.433,-3.222 -4.203,-3.361 -7.986,-5.043 -11.346,-5.043 -4.112,0 -6.165,2.989 -6.165,8.966 0,4.574 1.168,10.785 3.502,18.63 0.092,0.372 0.162,0.701 0.211,0.981 0.045,0.28 0.068,0.56 0.068,0.84 0,1.121 -0.512,1.681 -1.539,1.681 -2.055,0 -3.923,-1.121 -5.603,-3.362 -8.593,-11.487 -14.336,-19.471 -17.231,-23.953 0.187,4.762 0.328,8.335 0.421,10.715 0.093,2.382 0.14,3.619 0.14,3.712 -0.561,5.415 -3.035,8.126 -7.424,8.126 -1.682,0 -3.27,-0.469 -4.762,-1.402 -1.31,-1.12 -2.501,-2.171 -3.574,-3.151 -1.073,-0.981 -1.983,-1.846 -2.729,-2.591 l 4.482,13.727 c 0,2.147 -1.496,2.521 -4.482,1.121 -2.71,-1.309 -4.204,-2.242 -4.485,-2.802 0,-1.947 -1.935,-7.4 -5.799,-16.336 -0.4,-0.203 -0.842,-0.535 -1.341,-1.033 -8.965,-9.621 -16.389,-14.428 -22.273,-14.428 -3.736,0 -5.603,2.333 -5.603,7.003 0,5.975 2.707,14.335 8.125,25.074 0.185,0.372 0.279,0.653 0.279,0.841 0,0.746 -0.699,1.12 -2.101,1.12 -2.615,0 -4.436,-0.654 -5.463,-1.961 -2.615,-6.911 -6.351,-13.636 -11.206,-20.171 -5.417,-7.379 -10.086,-11.066 -14.008,-11.066 -1.681,0 -2.521,1.726 -2.521,5.183 0,2.801 1.353,6.909 4.062,12.326 0.746,1.494 1.516,2.942 2.312,4.343 0.791,1.401 1.562,2.848 2.31,4.343 0.467,1.306 -0.188,1.961 -1.961,1.961 -2.989,0 -4.95,-0.841 -5.883,-2.522 -5.23,-9.433 -7.845,-16.763 -7.845,-21.993 0,-4.855 2.148,-7.284 6.445,-7.284 1.681,0 3.642,0.514 5.883,1.541 3.734,1.773 9.01,6.725 15.829,14.849 -0.468,-2.055 -0.701,-3.83 -0.701,-5.324 0,-3.456 0.981,-6.302 2.942,-8.544 1.681,-2.055 3.502,-3.129 5.463,-3.222 6.958,-0.678 15.232,3.749 24.813,13.25 -0.615,-1.431 -1.186,-2.752 -1.703,-3.935 -1.12,-2.569 -2.007,-4.552 -2.661,-5.953 -0.092,-0.279 -0.139,-0.701 -0.139,-1.261 0,-1.775 0.655,-2.661 1.96,-2.661 0.56,0 1.12,0.14 1.682,0.42 0.56,0.28 2.24,2.894 5.043,7.845 3.174,5.602 6.022,9.665 8.545,12.186 3.732,3.922 6.489,5.883 8.263,5.883 2.148,0 3.034,-3.83 2.661,-11.486 -0.094,-1.12 -0.188,-2.335 -0.28,-3.643 -0.094,-1.307 -0.233,-2.709 -0.419,-4.202 l -0.421,-4.481 c -0.374,-1.495 0.186,-2.428 1.68,-2.802 1.402,-0.561 2.988,0.188 4.765,2.241 l 8.404,12.607 c 1.492,1.867 2.731,3.383 3.713,4.552 0.978,1.167 1.795,2.079 2.449,2.732 -0.748,-14.287 2.708,-21.432 10.366,-21.432 6.845,0 15.171,5.229 24.972,15.654 -0.156,-10.164 3.748,-15.341 11.729,-15.514 6.948,-0.257 15.16,4.347 24.631,13.781 -0.042,-0.486 -0.118,-0.991 -0.118,-1.454 0,-9.525 4.344,-14.288 13.029,-14.288 5.975,0 12.98,2.101 21.012,6.304 7.282,3.734 12.607,7.656 15.969,11.766 0.466,0.747 0.699,1.402 0.699,1.961 0,1.681 -0.887,1.587 -2.661,-0.28"
             style="fill:#414a4f;fill-opacity:1;fill-rule:nonzero;stroke:none"
             id="path20" />
        </g>
        <g
           id="g22"
           transform="translate(310.2144,246.0842)">
          <path
             d="m 0,0 c -14.507,-7.618 -29.777,-11.48 -45.385,-11.48 -12.902,0 -23.495,2.447 -31.468,7.264 -7.336,4.761 -11.056,10.165 -11.056,16.064 0,11.536 4.936,20.238 14.679,25.869 8.082,4.83 18.346,7.277 30.507,7.277 10.531,0 25.511,-2.663 44.5,-7.911 2.99,-0.966 7.337,-2.312 13.035,-4.047 5.47,-1.663 12.359,-3.812 20.667,-6.454 C 22.722,14.644 10.789,5.702 0,0 m 142.307,13.47 -0.405,0.423 -0.431,-0.295 c -1.367,-0.938 -2.749,-1.54 -3.725,-1.952 -1.015,-0.426 -1.793,-0.734 -2.343,-0.924 -1.335,-0.457 -3.438,-0.689 -6.23,-0.69 -5.54,0.192 -12.853,1.328 -21.738,3.377 -8.915,2.061 -19.781,5.285 -32.297,9.585 l -26.49,9.056 c 1.713,1.773 3.674,4.116 5.841,6.982 2.475,3.271 5.38,7.41 8.633,12.3 5.045,7.41 9.059,13.331 12.048,17.76 2.952,4.374 5.067,7.426 6.295,9.082 5.014,6.984 10.182,13.376 15.376,19.016 7.719,9.01 11.014,10.901 12.268,10.921 0.751,-0.195 1.525,-0.388 2.322,-0.58 0.753,-0.184 1.634,-0.511 2.618,-0.971 l 0.671,-0.313 0.186,0.734 c 0.561,2.218 1.027,4.123 1.404,5.715 0.376,1.603 0.616,3.021 0.708,4.169 0.259,1.763 0.186,2.735 -0.244,3.25 -0.201,0.241 -0.48,0.373 -0.811,0.373 h -0.002 c -1.673,-0.067 -5.339,-1.732 -17.798,-15.364 C 90.62,96.775 83.82,88.599 77.935,80.798 77.275,79.826 75.102,76.838 71.648,72.155 68.172,67.443 63.266,60.639 56.657,51.363 53.668,47.32 50.942,43.782 48.553,40.847 46.268,38.038 44.113,35.621 42.146,33.658 37.035,35.44 31.97,37.147 27.083,38.736 l -15.142,4.913 c -19.297,5.766 -36.653,8.689 -51.583,8.689 -11.919,0 -23.573,-3.48 -34.638,-10.342 -12.748,-7.885 -19.213,-18.027 -19.212,-30.168 0.286,-9.708 4.341,-17.217 12.061,-22.327 7.162,-4.566 16.839,-6.882 28.761,-6.882 20.077,0 38.881,4.444 55.887,13.206 12.152,6.216 25.212,15.784 38.821,28.442 l 28.221,-9.126 c 14.853,-5.168 22.879,-7.73 24.402,-7.807 4.217,-1.254 8.301,-2.16 12.137,-2.689 3.85,-0.532 7.599,-0.8 11.162,-0.8 h 0.007 c 2.986,0.096 5.482,0.17 7.49,0.217 2.067,0.05 3.545,0.172 4.564,0.384 3.021,0.875 7.033,2.891 12.011,6.054 1.199,1.09 1.331,1.295 1.331,1.636 v 0.322 l -0.25,0.191 c -0.323,0.301 -0.457,0.458 -0.806,0.821"
             style="fill:#414a4f;fill-opacity:1;fill-rule:nonzero;stroke:none"
             id="path24" />
        </g>
        <g
           id="g26"
           transform="translate(554.0107,317.344)">
          <path
             d="m 0,0 c 0,0 -1.137,4.027 0.361,8.385 1.652,4.804 6.438,10.645 6.438,10.645 0,0 2.847,-3.705 1.371,-11.152 -1.028,-5.185 -5.124,-8.83 -5.124,-8.83 0,0 5.572,0.236 9.449,6.865 3.383,5.782 4.669,13.777 1.433,23.52 -1.916,5.772 -4.815,13.894 -4.815,13.894 0,0 -1.328,-7.681 -4.87,-13.232 C 0.122,23.635 -4.228,17.031 -3.805,9.598 -3.405,2.574 0,0 0,0"
             style="fill:#414a4f;fill-opacity:1;fill-rule:nonzero;stroke:none"
             id="path28" />
        </g>
      </g>
    </g>
  </g>
</svg>
